<svg xmlns="http://www.w3.org/2000/svg" width="28.105" height="20.472"><g data-name="Group 389"><g data-name="Group 384"><g data-name="Group 383"><g data-name="Group 381"><path data-name="Rectangle 33" fill="#8b4b46" d="M4.862 19.541h2.651v.932H4.862z"/></g><g data-name="Group 382"><path data-name="Rectangle 34" fill="#8b4b46" d="M20.541 19.541h2.651v.932h-2.651z"/></g></g></g><path data-name="Path 62" d="M2.884 13.967c.053 4.553-.572 5.839 2.33 5.631h9.313c12.275-.2 10.541 1.519 10.642-5.631z" fill="#916f9d"/><g data-name="Group 386"><path data-name="Path 63" d="M22.717 10.471C22.422 2.445 25.211.429 12.988 0c-10.9.993-6.942 3.73-7.649 10.471z" fill="#c2b0d7"/><path data-name="Path 64" d="M20.834 10.471v-6.41c0-.794-3.061-2.309-6.683-2.309-2.771 0-6.93 1.514-6.93 2.309v6.41z" fill="#a87fb7"/><g data-name="Group 385"><path data-name="Path 65" d="M22.415 9.877H5.738c-6.542 7.058-.4 4.042 8.591 4.656 11.286-.283 13.263 1.641 8.086-4.656z" fill="#f5ab9c"/><path data-name="Path 66" d="M22.415 9.877H5.738c-6.542 7.058-.4 4.042 8.591 4.656 11.286-.283 13.263 1.641 8.086-4.656z" fill="#c2b0d7"/><path data-name="Path 67" d="M25.21 14.129c.138 2.122-6.077.816-12.169 1.154-5.641-.213-10.346.747-10.169-1.154-.138-2.122 6.077-.816 12.169-1.154 5.642.212 10.344-.746 10.169 1.154z" fill="#a87fb7"/></g></g><g data-name="Group 387"><path data-name="Path 68" d="M27.479 10.159c-3.55-2.773-5.478-5.572-5.892-.278a6.769 6.769 0 013.132 3.363z" fill="#6c5375"/><path data-name="Path 69" d="M23.226 19.628s1.506.272 2.912-1.682c4.853-8.71-.75-9.718-1.143-6.244-.239 1.09-1.548 6.928-1.769 7.926z" fill="#916f9d"/></g><g data-name="Group 388"><path data-name="Path 70" d="M.608 10.159C4.157 7.386 6.086 4.586 6.5 9.881a6.767 6.767 0 00-3.133 3.363z" fill="#6c5375"/><path data-name="Path 71" d="M4.865 19.628s-1.878.339-3.393-2.458c-3.974-8.5 1.35-8.5 1.609-5.528.199.904 1.555 6.97 1.784 7.986z" fill="#916f9d"/></g></g></svg>