<svg xmlns="http://www.w3.org/2000/svg" width="32.345" height="20.4"><g data-name="Group 394"><g data-name="Group 392"><g data-name="Group 390"><path data-name="Path 72" d="M5.669 12.99c-3.623 13.828-.186 4.984 1.673 0z" fill="#8b4b46"/><path data-name="Path 73" d="M8.234 12.99c-2.976 11.351-.289 4.966 1.528 0z" fill="#603631"/></g><g data-name="Group 391"><path data-name="Path 74" d="M30.476 12.99H28.8c3.9 10.525 4.089 9.163 1.676 0z" fill="#8b4b46"/><path data-name="Path 75" d="M27.912 12.99h-1.529c3.649 9.874 3.364 6.907 1.529 0z" fill="#603631"/></g></g><g data-name="Group 393"><path data-name="Path 76" d="M.253 3.043C3.661-1.928 6.528-.693 7.444 5.9a15.8 15.8 0 00-2.515 4.021z" fill="#a96a4c"/><path data-name="Path 77" d="M6.023 14.441s-2.007-.032-3.8-2.913c-4.854-9.377-.457-10.83.956-7.008 2.135 7.483 1.208 4.063 5.023 9.921z" fill="#e28a61"/></g><path data-name="Path 78" d="M4.916 9.453c-.124 7.373-.82 4.4 14.264 4.984 15.181-.227 12.988 1.53 13.127-4.984z" fill="#e28a61"/><path data-name="Path 79" d="M29.717 5.836H7.441c-4.323 4.517-2.493 4.172.108 4.12h11.707c13.661-.292 15.105 1.583 10.461-4.12z" fill="#fabfa4"/><path data-name="Path 80" d="M31.217 8.578a1.02 1.02 0 011.021 1.019c.3 1.945-7.36.686-14.517 1.022-7.013-.244-13.248.768-12.921-1.022a1.02 1.02 0 011.021-1.019" fill="#f6a47e"/></g></svg>