<svg xmlns="http://www.w3.org/2000/svg" width="24.999" height="25"><path data-name="001-filter" d="M24.022 0H.977A.976.976 0 000 .976 9.538 9.538 0 003.2 8.1l4.277 3.8a3.48 3.48 0 011.167 2.6v9.523a.977.977 0 001.518.812l5.762-3.841a.977.977 0 00.435-.813V14.5a3.48 3.48 0 011.167-2.6L21.8 8.1A9.538 9.538 0 0025 .976.976.976 0 0024.022 0zM20.5 6.639l-4.277 3.8A5.435 5.435 0 0014.4 14.5v5.16l-3.8 2.54v-7.7a5.435 5.435 0 00-1.822-4.058L4.5 6.639a7.586 7.586 0 01-2.48-4.687h20.963A7.584 7.584 0 0120.5 6.639zm0 0" fill="#5856d6"/></svg>