<svg xmlns="http://www.w3.org/2000/svg" width="388.412" height="170.647"><g data-name="Group 355" transform="translate(.142 .5)" opacity=".6"><rect data-name="Rectangle 29" width="388" height="170" rx="10" fill="#fff"/><path data-name="Path 50" d="M61.32 0S30.31 5.69 29.38 28.24C28.43 50.78 0 50.15 0 50.15V10A10 10 0 0110 0z" fill="#5e5ce6"/><path data-name="Path 51" d="M388 111.61V160a10 10 0 01-10 10h-26.87s-11.96-1.4-11.33-16.2 18.26-8.5 23.61-27.71S388 111.61 388 111.61z" fill="#0a84ff"/><path data-name="Path 52" d="M356.895 170s-6.442-20.884 11.116-27.453 9.663-26.652 19.989-27.789" fill="none" stroke="#d2ebff" stroke-miterlimit="10"/><path data-name="Path 53" d="M357.3 170c.9-5.22 4.79-19.9 20.21-19.6a18.109 18.109 0 0010.49-2.78" fill="none" stroke="#d2ebff" stroke-miterlimit="10" opacity=".3"/><path data-name="Path 54" d="M0 38.08c4.98 1.47 17.84 3.38 19.82-15.09C22.28 0 61.32 0 61.32 0" fill="none" stroke="#d2ebff" stroke-miterlimit="10"/><path data-name="Path 55" d="M0 29.12c4.24-1.07 8.45-4.64 10.75-13.53C13.09 6.57 20.76 2.11 29.08 0" fill="none" stroke="#d2ebff" stroke-miterlimit="10" opacity=".3"/></g></svg>